<svg xmlns="http://www.w3.org/2000/svg" xmlns:xlink="http://www.w3.org/1999/xlink" preserveAspectRatio="none" width="200" height="200"><defs><path d="M196.55 17.95Q196.55 0 178.65 0H136.2q-17.95 0-17.95 17.95v2.6h-78.5Q23 21 22.65 37.1v27.85h-4.7Q0 64.95 0 82.9v32.05q0 17.95 17.95 17.95h4.7v29.55q.2 16.5 17.9 16.5h77.7v3.15q0 17.9 17.95 17.9h42.45q17.9 0 17.9-17.9v-22.65q0-17.95-17.9-17.95H136.2q-17.95 0-17.95 17.95V162h-77.7q-.7 0-.9-.1v-29H50q17.95 0 17.95-17.95v-6.4h50.3v2.65q0 17.9 17.95 17.9h42.45q17.9 0 17.9-17.9V88.55q0-17.95-17.9-17.95H136.2q-17.95 0-17.95 17.95v3h-50.3V82.9q0-17.95-17.95-17.95H39.65V37.7q.15-.2.6-.2h78v3.1q0 17.9 17.95 17.9h42.45q17.9 0 17.9-17.9V17.95M179.6 40.6q0 .9-.95.9H136.2q-.95 0-.95-.9V17.95q0-.95.95-.95h42.45q.95 0 .95.95V40.6m-.95 47q.95 0 .95.95v22.65q0 .95-.95.95H136.2q-.95 0-.95-.95V88.55q0-.95.95-.95h42.45m.95 94.5q0 .95-.95.95H136.2q-.95 0-.95-.95v-22.65q0-.95.95-.95h42.45q.95 0 .95.95v22.65M17 82.9q0-.95.95-.95H50q.95 0 .95.95v32.05q0 .95-.95.95H17.95q-.95 0-.95-.95V82.9z" id="prefix__a"/></defs><use xlink:href="#prefix__a"/></svg>