<?xml version="1.0" standalone="no"?><!DOCTYPE svg PUBLIC "-//W3C//DTD SVG 1.1//EN" "http://www.w3.org/Graphics/SVG/1.1/DTD/svg11.dtd"><svg t="1603437255749" class="icon" viewBox="0 0 1024 1024" version="1.1" xmlns="http://www.w3.org/2000/svg" p-id="1527" xmlns:xlink="http://www.w3.org/1999/xlink" width="200" height="200"><defs><style type="text/css"></style></defs><path d="M512 0l448 256v512l-448 256-448-256V256l448-256z m0 98.24l-362.88 207.36v412.8L512 925.76l362.88-207.36v-412.8L512 98.24z m224 200.448l64.64 37.312v74.688L736 448l-30.784-17.792-155.968 78.08v185.216l27.392 15.808v74.688L512 821.312l-64.64-37.312v-74.688l27.392-15.808V508.352L318.72 430.208 288 448l-64.64-37.312V336l64.64-37.312 64.64 37.312v27.712L512 443.52l159.36-79.872V336l64.64-37.312z" fill="#000000" p-id="1528"></path></svg>