
<svg xmlns="http://www.w3.org/2000/svg" version="1.1" xmlns:xlink="http://www.w3.org/1999/xlink" preserveAspectRatio="none" x="0px" y="0px" width="64px" height="64px" viewBox="0 0 64 64">
<defs>
<g id="Layer0_0_FILL">
<path fill="#000000" stroke="none" d="
M 13.95 36.95
Q 16 34.9 16 32 16 29.1 13.95 27.05 11.9 25 9 25 6.1 25 4.05 27.05 2 29.1 2 32 2 34.95 4.05 36.95 6.1 39 9 39 11.9 39 13.95 36.95 Z"/>
</g>

<g id="Layer0_1_FILL">
<path fill="#000000" stroke="none" d="
M 18 32
Q 18 28.3 15.35 25.65 12.7 23 9 23 5.25 23 2.65 25.65 0 28.3 0 32 0 35.75 2.65 38.4 5.25 41 9 41 12.7 41 15.35 38.4 18 35.75 18 32
M 12.55 28.45
Q 14 29.95 14 32 14 34.1 12.55 35.55 11.05 37 9 37 6.9 37 5.45 35.55 4 34.1 4 32 4 29.95 5.45 28.45 6.9 27 9 27 11.05 27 12.55 28.45 Z"/>
</g>

<g id="Layer0_2_FILL">
<path fill="#000000" stroke="none" d="
M 25.65 25.65
Q 23 28.3 23 32 23 35.75 25.65 38.4 28.25 41 32 41 35.7 41 38.35 38.4 41 35.75 41 32 41 28.3 38.35 25.65 35.7 23 32 23 28.25 23 25.65 25.65
M 35.55 28.45
Q 37 29.95 37 32 37 34.1 35.55 35.55 34.05 37 32 37 29.9 37 28.45 35.55 27 34.1 27 32 27 29.95 28.45 28.45 29.9 27 32 27 34.05 27 35.55 28.45 Z"/>
</g>

<g id="Layer0_3_FILL">
<path fill="#000000" stroke="none" d="
M 4.05 42.05
Q 2 44.1 2 47 2 49.9 4.05 51.95 6.1 54 9 54 11.9 54 13.95 51.95 16 49.9 16 47 16 44.05 13.95 42.05 11.9 40 9 40 6.1 40 4.05 42.05 Z"/>
</g>

<g id="Layer0_4_FILL">
<path fill="#000000" stroke="none" d="
M 9 38
Q 5.3 38 2.65 40.6 0 43.25 0 47 0 50.7 2.65 53.35 5.3 56 9 56 12.75 56 15.35 53.35 18 50.7 18 47 18 43.25 15.35 40.6 12.75 38 9 38
M 4 47
Q 4 44.9 5.45 43.45 6.95 42 9 42 11.1 42 12.55 43.45 14 44.9 14 47 14 49.05 12.55 50.55 11.1 52 9 52 6.95 52 5.45 50.55 4 49.05 4 47 Z"/>
</g>
</defs>

<g transform="matrix( 0, 1, -1, 0, 64,0.5) ">
<use xlink:href="#Layer0_0_FILL"/>
</g>

<g transform="matrix( 0, 1.0555572509765625, -1.0555572509765625, 0, 66.3,0.5) ">
<use xlink:href="#Layer0_1_FILL"/>
</g>

<g transform="matrix( 0, 1.0555572509765625, -1.0555572509765625, 0, 66.3,-1.8) ">
<use xlink:href="#Layer0_2_FILL"/>
</g>

<g transform="matrix( 0, -1, 1, 0, -15,63.5) ">
<use xlink:href="#Layer0_3_FILL"/>
</g>

<g transform="matrix( 0, -1.0555572509765625, 1.0555572509765625, 0, -17.1,63.5) ">
<use xlink:href="#Layer0_4_FILL"/>
</g>
</svg>
