
<svg xmlns="http://www.w3.org/2000/svg" version="1.1" xmlns:xlink="http://www.w3.org/1999/xlink" preserveAspectRatio="none" x="0px" y="0px" width="64px" height="64px" viewBox="0 0 64 64">
<defs>
<g id="Layer0_0_MEMBER_0_MEMBER_0_MEMBER_0_FILL">
<path fill="#000000" stroke="none" d="
M 38.4 48.65
Q 35.7 46 32 46 28.35 46 25.6 48.65 23 51.35 23 55 23 58.85 25.6 61.35 28.25 64 32 64 35.75 64 38.4 61.35 41 58.75 41 55 41 51.4 38.4 48.65
M 35.5 58.6
Q 34.1 60 32 60 29.95 60 28.45 58.6 27 57.15 27 55 27 52.9 28.45 51.45 30 50 32 50 34.05 50 35.5 51.45 37 52.95 37 55 37 57.1 35.5 58.6 Z"/>
</g>

<g id="Layer0_1_MEMBER_0_MEMBER_0_MEMBER_0_FILL">
<path fill="#000000" stroke="none" d="
M 25.6 25.7
Q 23 28.3 23 32 23 35.8 25.6 38.4 28.3 41 32 41 35.75 41 38.4 38.4 41 35.75 41 32 41 28.4 38.4 25.7 35.7 23 32 23 28.3 23 25.6 25.7
M 32 27
Q 34.1 27 35.5 28.5 37 30 37 32 37 34.15 35.5 35.55 34.1 37 32 37 29.9 37 28.45 35.55 27 34.15 27 32 27 29.95 28.45 28.5 29.95 27 32 27 Z"/>
</g>

<g id="Layer0_2_MEMBER_0_MEMBER_0_MEMBER_0_FILL">
<path fill="#000000" stroke="none" d="
M 38.4 2.7
Q 35.7 0 32 0 28.3 0 25.6 2.7 23 5.3 23 9 23 12.85 25.6 15.35 28.25 18 32 18 35.75 18 38.4 15.35 41 12.75 41 9 41 5.4 38.4 2.7
M 35.5 5.5
Q 37 7 37 9 37 11.15 35.5 12.55 34.1 14 32 14 29.9 14 28.45 12.55 27 11.15 27 9 27 6.95 28.45 5.5 29.95 4 32 4 34.1 4 35.5 5.5 Z"/>
</g>
</defs>

<g transform="matrix( 1, 0, 0, 1, 1,0) ">
<use xlink:href="#Layer0_0_MEMBER_0_MEMBER_0_MEMBER_0_FILL"/>
</g>

<g transform="matrix( 1, 0, 0, 1, 1,0) ">
<use xlink:href="#Layer0_1_MEMBER_0_MEMBER_0_MEMBER_0_FILL"/>
</g>

<g transform="matrix( 1, 0, 0, 1, 1,0) ">
<use xlink:href="#Layer0_2_MEMBER_0_MEMBER_0_MEMBER_0_FILL"/>
</g>
</svg>
