
<svg xmlns="http://www.w3.org/2000/svg" version="1.1" xmlns:xlink="http://www.w3.org/1999/xlink" preserveAspectRatio="none" x="0px" y="0px" width="64px" height="64px" viewBox="0 0 64 64">
<defs>
<g id="Layer0_0_FILL">
<path fill="#000000" stroke="none" d="
M 18 32
Q 18 28.3 15.35 25.65 12.7 23 9 23 5.25 23 2.65 25.65 0 28.3 0 32 0 35.75 2.65 38.4 5.25 41 9 41 12.7 41 15.35 38.4 18 35.75 18 32
M 14 32
Q 14 34.1 12.55 35.55 11.05 37 9 37 6.9 37 5.45 35.55 4 34.1 4 32 4 29.95 5.45 28.45 6.9 27 9 27 11.05 27 12.55 28.45 14 29.95 14 32 Z"/>
</g>

<g id="Layer0_1_FILL">
<path fill="#000000" stroke="none" d="
M 36.95 27.05
Q 34.9 25 32 25 29.1 25 27.05 27.05 25 29.1 25 32 25 34.95 27.05 36.95 29.1 39 32 39 34.9 39 36.95 36.95 39 34.9 39 32 39 29.1 36.95 27.05 Z"/>
</g>

<g id="Layer0_2_FILL">
<path fill="#000000" stroke="none" d="
M 25.65 25.65
Q 23 28.3 23 32 23 35.75 25.65 38.4 28.25 41 32 41 35.7 41 38.35 38.4 41 35.75 41 32 41 28.3 38.35 25.65 35.7 23 32 23 28.25 23 25.65 25.65
M 35.55 35.55
Q 34.05 37 32 37 29.9 37 28.45 35.55 27 34.1 27 32 27 29.95 28.45 28.45 29.9 27 32 27 34.05 27 35.55 28.45 37 29.95 37 32 37 34.1 35.55 35.55 Z"/>
</g>

<g id="Layer0_3_FILL">
<path fill="#000000" stroke="none" d="
M 59.95 27.05
Q 57.9 25 55 25 52.1 25 50.05 27.05 48 29.1 48 32 48 34.95 50.05 36.95 52.1 39 55 39 57.9 39 59.95 36.95 62 34.9 62 32 62 29.1 59.95 27.05 Z"/>
</g>

<g id="Layer0_4_FILL">
<path fill="#000000" stroke="none" d="
M 48.65 25.65
Q 46 28.3 46 32 46 35.75 48.65 38.4 51.25 41 55 41 58.7 41 61.35 38.4 64 35.75 64 32 64 28.3 61.35 25.65 58.7 23 55 23 51.25 23 48.65 25.65
M 51.45 28.45
Q 52.9 27 55 27 57.05 27 58.55 28.45 60 29.95 60 32 60 34.1 58.55 35.55 57.05 37 55 37 52.9 37 51.45 35.55 50 34.1 50 32 50 29.95 51.45 28.45 Z"/>
</g>
</defs>

<g transform="matrix( 0, -1, 1, 0, 0,64) ">
<use xlink:href="#Layer0_0_FILL"/>
</g>

<g transform="matrix( 0, -1, 1, 0, 0,64) ">
<use xlink:href="#Layer0_1_FILL"/>
</g>

<g transform="matrix( 0, -1, 1, 0, 0,64) ">
<use xlink:href="#Layer0_2_FILL"/>
</g>

<g transform="matrix( 0, -1, 1, 0, 0,64) ">
<use xlink:href="#Layer0_3_FILL"/>
</g>

<g transform="matrix( 0, -1, 1, 0, 0,64) ">
<use xlink:href="#Layer0_4_FILL"/>
</g>
</svg>
