
<svg xmlns="http://www.w3.org/2000/svg" version="1.1" xmlns:xlink="http://www.w3.org/1999/xlink" preserveAspectRatio="none" x="0px" y="0px" width="128px" height="128px" viewBox="0 0 128 128">
<defs>
<g id="Layer1_0_FILL">
<path fill="#2C2E3A" stroke="none" d="
M 128 64
Q 128 37.55 109.25 18.75 90.5 0 64 0 37.5 0 18.75 18.75 0 37.5 0 64 0 90.5 18.75 109.25 37.5 128 64 128 90.5 128 109.25 109.25 128 90.5 128 64 Z"/>
</g>

<g id="Layer0_0_FILL">
<path fill="#CFF7FF" stroke="none" d="
M 22.2 3.6
Q 21.7 3.15 21.05 3.15
L 16.4 3.15
Q 15.75 3.15 15.25 3.6 14.8 4.05 14.8 4.7
L 14.8 6.25 14.05 6.25
Q 12.75 6.25 11.8 7.15 10.9 8.1 10.9 9.4
L 10.9 11.75 7.8 11.75 7.8 10.95
Q 7.8 10.3 7.35 9.85 6.9 9.4 6.25 9.4
L 3.1 9.4
Q 2.45 9.4 2 9.85 1.55 10.3 1.55 10.95
L 1.55 14.1
Q 1.55 14.75 2 15.2 2.45 15.65 3.1 15.65
L 6.25 15.65
Q 6.9 15.65 7.35 15.2 7.8 14.75 7.8 14.1
L 7.8 13.3 10.9 13.3 10.9 15.65
Q 10.9 16.95 11.8 17.85 12.75 18.75 14.05 18.75
L 14.8 18.75 14.8 20.35
Q 14.8 21 15.25 21.45 15.75 21.9 16.4 21.9
L 21.05 21.9
Q 21.7 21.9 22.2 21.45 22.65 21 22.65 20.35
L 22.65 15.65
Q 22.65 15 22.2 14.55 21.7 14.1 21.05 14.1
L 16.4 14.1
Q 15.75 14.1 15.25 14.55 14.8 15 14.8 15.65
L 14.8 17.2 14.05 17.2
Q 13.4 17.2 12.95 16.75 12.5 16.3 12.5 15.65
L 12.5 9.4
Q 12.5 8.75 12.95 8.3 13.4 7.85 14.05 7.85
L 14.8 7.85 14.8 9.4
Q 14.8 10.05 15.25 10.5 15.75 10.95 16.4 10.95
L 21.05 10.95
Q 21.7 10.95 22.2 10.5 22.65 10.05 22.65 9.4
L 22.65 4.7
Q 22.65 4.05 22.2 3.6 Z"/>
</g>
</defs>

<g transform="matrix( 1, 0, 0, 1, 0,0) ">
<use xlink:href="#Layer1_0_FILL"/>
</g>

<g transform="matrix( 3.75091552734375, 0, 0, 3.75091552734375, 12.6,15.75) ">
<use xlink:href="#Layer0_0_FILL"/>
</g>
</svg>
